<svg xmlns="http://www.w3.org/2000/svg" xmlns:xlink="http://www.w3.org/1999/xlink" width="17.699" height="17.7" viewBox="0 0 17.699 17.7"><defs><clipPath id="a"><rect width="17.7" height="17.7" transform="translate(0 0)" fill="#005498"/></clipPath></defs><g transform="translate(0)" clip-path="url(#a)"><g transform="translate(0 1.013)"><g transform="translate(0 0)"><path d="M11.8,21.131a1.338,1.338,0,1,1-2.676,0A1.339,1.339,0,0,1,11.8,21.131Z" transform="translate(-2.665 -6.796)" fill="#005498"/><circle cx="1.338" cy="1.338" r="1.338" transform="translate(11.815 12.996)" fill="#005498"/><path d="M17.4,4.33a1.388,1.388,0,0,0-.868-.286H4.765c-.426-2-.7-2.614-2.02-2.614H0L.576,2.667l2.181.008s.508,0,.638.742l1.8,8.729a1.684,1.684,0,0,0,1.8,1.331h7.849c1.057,0,1.124-1.165,1.124-1.165H7.54A1.226,1.226,0,0,1,6.275,11.12l-.4-1.872,10.543-.013a.946.946,0,0,0,.909-.843l.36-3.28A.794.794,0,0,0,17.4,4.33ZM16.161,7.918H5.593L5.082,5.533H16.421Z" transform="translate(0 -1.431)" fill="#005498"/></g></g></g></svg>