<svg xmlns="http://www.w3.org/2000/svg" xmlns:xlink="http://www.w3.org/1999/xlink" width="27" height="29" viewBox="0 0 27 29"><defs><clipPath id="a"><rect width="27" height="29" transform="translate(-0.46 -0.404)" fill="#fff" stroke="#707070" stroke-width="1"/></clipPath></defs><g transform="translate(0.46 0.404)" clip-path="url(#a)"><g transform="translate(1.072 0.027)"><g transform="translate(0)"><path d="M11.363,15.137h.186a5.368,5.368,0,0,0,4.1-1.774c2.24-2.525,1.867-6.853,1.827-7.266C17.332,3,15.866,1.513,14.656.82A6.468,6.468,0,0,0,11.526,0h-.1A6.478,6.478,0,0,0,8.3.8c-1.222.692-2.711,2.176-2.856,5.3-.041.413-.413,4.741,1.827,7.266A5.347,5.347,0,0,0,11.363,15.137Zm-4.369-8.9c0-.017.006-.035.006-.047.192-4.171,3.153-4.619,4.421-4.619h.07c1.571.035,4.241.675,4.421,4.619a.113.113,0,0,0,.006.047c.006.041.413,4-1.437,6.079a3.813,3.813,0,0,1-3,1.245h-.058a3.8,3.8,0,0,1-2.99-1.245C6.593,10.251,6.989,6.277,6.994,6.242Z" transform="translate(0.483)" fill="#fff"/><path d="M25.314,17.435v-.017c0-.047-.006-.093-.006-.145-.035-1.152-.111-3.845-2.635-4.706l-.058-.017a16.786,16.786,0,0,1-4.829-2.2.785.785,0,1,0-.9,1.286A18.119,18.119,0,0,0,22.2,14.06c1.355.483,1.507,1.931,1.547,3.258a1.168,1.168,0,0,0,.006.145,10.56,10.56,0,0,1-.122,1.8A21.41,21.41,0,0,1,13.37,21.647,21.533,21.533,0,0,1,3.108,19.256a10,10,0,0,1-.122-1.8c0-.047.006-.093.006-.145.041-1.326.192-2.775,1.547-3.258a18.288,18.288,0,0,0,5.311-2.426.785.785,0,1,0-.9-1.286,16.6,16.6,0,0,1-4.829,2.2c-.023.006-.041.012-.058.017-2.525.867-2.6,3.56-2.635,4.706a1.168,1.168,0,0,1-.006.145v.017a8.921,8.921,0,0,0,.3,2.635.746.746,0,0,0,.3.367,22,22,0,0,0,11.356,2.781,22.071,22.071,0,0,0,11.356-2.781.779.779,0,0,0,.3-.367A9.36,9.36,0,0,0,25.314,17.435Z" transform="translate(-1.419 4.882)" fill="#fff"/></g></g></g></svg>